<?xml version="1.0" encoding="UTF-8" standalone="no"?>
<!DOCTYPE svg PUBLIC "-//W3C//DTD SVG 1.1//EN" "http://www.w3.org/Graphics/SVG/1.1/DTD/svg11.dtd">
<svg xmlns="http://www.w3.org/2000/svg" version="1.1"

 viewBox="0 0 929.00 912.00"
>
<g stroke-linecap="butt"
 stroke-linejoin="bevel"
stroke-width="2"  vector-effect="non-scaling-stroke"
>
<path d="M751.89,910.98 L667.07,570.03 A1.03,1.03,-21.27,0,1,667.58,568.87 C679.28,562.49,692.67,554.46,709.72,544.48 Q720.01,538.47,757.48,513.45 Q782.47,496.76,813.59,472.07 Q841.48,449.95,865.88,425.14 Q885.63,405.05,901.11,383.63 Q909.48,372.05,916.84,356.89 Q920.07,350.24,922.17,342.79 Q924.89,333.16,925.31,328.02 Q927.98,295.75,901.21,278.23 Q887.28,269.12,870.36,264.11 C838.61,254.73,807.14,251.94,773.99,252.30 Q710.04,252.99,646.76,268.04 Q632.98,271.32,618.89,275.85 A0.35,0.35,35.09,0,0,619.01,276.53 Q651.05,275.49,684.00,276.27 C706.48,276.80,731.23,279.51,752.94,286.30 C762.81,289.39,774.18,295.41,780.30,303.88 C792.59,320.90,788.85,341.86,778.92,358.96 C771.19,372.28,759.73,385.05,748.02,396.20 Q727.42,415.81,702.05,434.24 C690.84,442.38,675.69,452.89,663.32,460.56 C612.16,492.31,560.33,519.24,504.90,543.33 Q327.79,620.29,136.26,650.74 Q68.50,661.51,2.67,664.60 A0.31,0.30,-26.69,0,0,2.49,665.14 C45.46,700.63,101.20,712.67,156.01,711.66 Q189.21,711.04,222.44,706.78 A0.62,0.62,1.35,0,1,223.13,707.50 Q218.31,734.05,213.29,759.00 Q208.03,785.16,203.39,810.46 Q196.50,847.97,189.16,887.28 Q187.36,896.95,185.43,907.82 A0.65,0.65,-11.28,0,0,186.42,908.48 Q226.89,882.61,262.74,858.76 Q271.26,853.10,280.36,847.05 Q294.21,837.86,308.12,828.83 Q325.28,817.70,335.86,810.53 Q348.38,802.04,363.56,792.13 C378.62,782.28,387.27,776.24,404.55,764.72 C424.55,751.36,449.34,734.08,471.09,719.56 A1.96,1.95,-44.36,0,1,473.29,719.58 L748.44,910.97"
 fill="none"
 stroke="#b14a4c"

/>
<path d="M1.68,352.44 L247.35,576.14 A1.38,1.36,59.05,0,0,248.59,576.46 Q317.32,560.27,383.91,537.37 Q466.84,508.84,543.91,472.10 Q565.93,461.61,593.21,446.72 Q636.28,423.21,672.88,397.31 C688.16,386.49,703.51,374.23,717.42,360.68 Q723.89,354.39,730.82,345.84 Q735.65,339.89,737.34,332.96 C739.86,322.67,724.68,320.20,717.43,319.83 Q701.13,319.00,677.50,319.98 Q641.49,321.47,594.55,323.96 A1.35,1.35,-12.49,0,1,593.23,323.12 L461.98,2.58 A0.29,0.28,-45.76,0,0,461.45,2.59 Q451.27,28.60,440.64,57.46 Q439.77,59.83,418.32,117.00 Q382.58,212.31,375.65,230.43 Q360.92,269.00,346.47,308.08 C345.52,310.64,345.44,311.72,342.76,312.03 Q238.00,324.05,42.03,347.13 C28.69,348.70,15.89,349.69,1.87,351.79 A0.38,0.37,61.86,0,0,1.68,352.44"
 fill="none"
 stroke="#b14a4c"

/>
</g>
<path d="M1.68,352.44 A0.38,0.37,61.86,0,1,1.87,351.79 C15.89,349.69,28.69,348.70,42.03,347.13 Q238.00,324.05,342.76,312.03 C345.44,311.72,345.52,310.64,346.47,308.08 Q360.92,269.00,375.65,230.43 Q382.58,212.31,418.32,117.00 Q439.77,59.83,440.64,57.46 Q451.27,28.60,461.45,2.59 A0.29,0.28,-45.76,0,1,461.98,2.58 L593.23,323.12 A1.35,1.35,-12.49,0,0,594.55,323.96 Q641.49,321.47,677.50,319.98 Q701.13,319.00,717.43,319.83 C724.68,320.20,739.86,322.67,737.34,332.96 Q735.65,339.89,730.82,345.84 Q723.89,354.39,717.42,360.68 C703.51,374.23,688.16,386.49,672.88,397.31 Q636.28,423.21,593.21,446.72 Q565.93,461.61,543.91,472.10 Q466.84,508.84,383.91,537.37 Q317.32,560.27,248.59,576.46 A1.38,1.36,59.05,0,1,247.35,576.14 L1.68,352.44 Z"
 fill="#b14a4c"
/>
<path d="M751.89,910.98 L748.44,910.97 L473.29,719.58 A1.96,1.95,-44.36,0,0,471.09,719.56 C449.34,734.08,424.55,751.36,404.55,764.72 C387.27,776.24,378.62,782.28,363.56,792.13 Q348.38,802.04,335.86,810.53 Q325.28,817.70,308.12,828.83 Q294.21,837.86,280.36,847.05 Q271.26,853.10,262.74,858.76 Q226.89,882.61,186.42,908.48 A0.65,0.65,-11.28,0,1,185.43,907.82 Q187.36,896.95,189.16,887.28 Q196.50,847.97,203.39,810.46 Q208.03,785.16,213.29,759.00 Q218.31,734.05,223.13,707.50 A0.62,0.62,1.35,0,0,222.44,706.78 Q189.21,711.04,156.01,711.66 C101.20,712.67,45.46,700.63,2.49,665.14 A0.31,0.30,-26.69,0,1,2.67,664.60 Q68.50,661.51,136.26,650.74 Q327.79,620.29,504.90,543.33 C560.33,519.24,612.16,492.31,663.32,460.56 C675.69,452.89,690.84,442.38,702.05,434.24 Q727.42,415.81,748.02,396.20 C759.73,385.05,771.19,372.28,778.92,358.96 C788.85,341.86,792.59,320.90,780.30,303.88 C774.18,295.41,762.81,289.39,752.94,286.30 C731.23,279.51,706.48,276.80,684.00,276.27 Q651.05,275.49,619.01,276.53 A0.35,0.35,35.09,0,1,618.89,275.85 Q632.98,271.32,646.76,268.04 Q710.04,252.99,773.99,252.30 C807.14,251.94,838.61,254.73,870.36,264.11 Q887.28,269.12,901.21,278.23 Q927.98,295.75,925.31,328.02 Q924.89,333.16,922.17,342.79 Q920.07,350.24,916.84,356.89 Q909.48,372.05,901.11,383.63 Q885.63,405.05,865.88,425.14 Q841.48,449.95,813.59,472.07 Q782.47,496.76,757.48,513.45 Q720.01,538.47,709.72,544.48 C692.67,554.46,679.28,562.49,667.58,568.87 A1.03,1.03,-21.27,0,0,667.07,570.03 L751.89,910.98 Z"
 fill="#b14a4c"
/>
</svg>